<mxfile host="app.diagrams.net" modified="2023-09-25T15:16:51.701Z" agent="Mozilla/5.0 (Windows NT 10.0; Win64; x64) AppleWebKit/537.36 (KHTML, like Gecko) Chrome/117.0.0.0 Safari/537.36" etag="evTys-qZ1A20RV-MR6IN" version="21.8.0" type="device">
  <diagram name="Страница — 1" id="tyXD_Y5tc0pJUpRLUC1T">
    <mxGraphModel dx="1932" dy="596" grid="1" gridSize="10" guides="1" tooltips="1" connect="1" arrows="1" fold="1" page="1" pageScale="1" pageWidth="827" pageHeight="1169" math="0" shadow="0">
      <root>
        <mxCell id="0" />
        <mxCell id="1" parent="0" />
        <mxCell id="SPETgPv7omVsSzXn5G05-1" value="Товар" style="rounded=0;whiteSpace=wrap;html=1;" parent="1" vertex="1">
          <mxGeometry x="400" y="240" width="80" height="40" as="geometry" />
        </mxCell>
        <mxCell id="SPETgPv7omVsSzXn5G05-2" value="включает" style="rhombus;whiteSpace=wrap;html=1;" parent="1" vertex="1">
          <mxGeometry x="320" y="320" width="80" height="40" as="geometry" />
        </mxCell>
        <mxCell id="SPETgPv7omVsSzXn5G05-3" value="включает" style="rhombus;whiteSpace=wrap;html=1;" parent="1" vertex="1">
          <mxGeometry x="480" y="320" width="80" height="40" as="geometry" />
        </mxCell>
        <mxCell id="SPETgPv7omVsSzXn5G05-4" value="Журнал&lt;br&gt;поставок" style="rounded=0;whiteSpace=wrap;html=1;" parent="1" vertex="1">
          <mxGeometry x="600" y="320" width="80" height="40" as="geometry" />
        </mxCell>
        <mxCell id="SPETgPv7omVsSzXn5G05-5" value="Журнал&lt;br&gt;заказов" style="rounded=0;whiteSpace=wrap;html=1;" parent="1" vertex="1">
          <mxGeometry x="200" y="320" width="80" height="40" as="geometry" />
        </mxCell>
        <mxCell id="SPETgPv7omVsSzXn5G05-6" value="" style="endArrow=none;html=1;rounded=0;entryX=0;entryY=0.5;entryDx=0;entryDy=0;" parent="1" target="SPETgPv7omVsSzXn5G05-2" edge="1">
          <mxGeometry width="50" height="50" relative="1" as="geometry">
            <mxPoint x="280" y="340" as="sourcePoint" />
            <mxPoint x="330" y="290" as="targetPoint" />
          </mxGeometry>
        </mxCell>
        <mxCell id="SPETgPv7omVsSzXn5G05-7" value="" style="endArrow=none;html=1;rounded=0;entryX=0.25;entryY=1;entryDx=0;entryDy=0;exitX=1;exitY=0.5;exitDx=0;exitDy=0;" parent="1" source="SPETgPv7omVsSzXn5G05-2" target="SPETgPv7omVsSzXn5G05-1" edge="1">
          <mxGeometry width="50" height="50" relative="1" as="geometry">
            <mxPoint x="400" y="340" as="sourcePoint" />
            <mxPoint x="450" y="290" as="targetPoint" />
            <Array as="points">
              <mxPoint x="420" y="340" />
            </Array>
          </mxGeometry>
        </mxCell>
        <mxCell id="SPETgPv7omVsSzXn5G05-8" value="" style="endArrow=none;html=1;rounded=0;entryX=0.75;entryY=1;entryDx=0;entryDy=0;exitX=0;exitY=0.5;exitDx=0;exitDy=0;" parent="1" source="SPETgPv7omVsSzXn5G05-3" target="SPETgPv7omVsSzXn5G05-1" edge="1">
          <mxGeometry width="50" height="50" relative="1" as="geometry">
            <mxPoint x="410" y="350" as="sourcePoint" />
            <mxPoint x="430" y="290" as="targetPoint" />
            <Array as="points">
              <mxPoint x="460" y="340" />
            </Array>
          </mxGeometry>
        </mxCell>
        <mxCell id="SPETgPv7omVsSzXn5G05-9" value="" style="endArrow=none;html=1;rounded=0;entryX=0;entryY=0.5;entryDx=0;entryDy=0;" parent="1" edge="1">
          <mxGeometry width="50" height="50" relative="1" as="geometry">
            <mxPoint x="560" y="339.71" as="sourcePoint" />
            <mxPoint x="600" y="339.71" as="targetPoint" />
          </mxGeometry>
        </mxCell>
        <mxCell id="SPETgPv7omVsSzXn5G05-10" value="включает" style="rhombus;whiteSpace=wrap;html=1;" parent="1" vertex="1">
          <mxGeometry x="720" y="320" width="80" height="40" as="geometry" />
        </mxCell>
        <mxCell id="SPETgPv7omVsSzXn5G05-11" value="включает" style="rhombus;whiteSpace=wrap;html=1;" parent="1" vertex="1">
          <mxGeometry x="80" y="320" width="80" height="40" as="geometry" />
        </mxCell>
        <mxCell id="SPETgPv7omVsSzXn5G05-12" value="Список&lt;br&gt;Заказ" style="rounded=0;whiteSpace=wrap;html=1;" parent="1" vertex="1">
          <mxGeometry x="80" y="240" width="80" height="40" as="geometry" />
        </mxCell>
        <mxCell id="SPETgPv7omVsSzXn5G05-13" value="Делает" style="rhombus;whiteSpace=wrap;html=1;" parent="1" vertex="1">
          <mxGeometry x="40" y="160" width="60" height="40" as="geometry" />
        </mxCell>
        <mxCell id="SPETgPv7omVsSzXn5G05-14" value="Покупатель" style="rounded=0;whiteSpace=wrap;html=1;" parent="1" vertex="1">
          <mxGeometry x="80" y="80" width="80" height="40" as="geometry" />
        </mxCell>
        <mxCell id="SPETgPv7omVsSzXn5G05-15" value="" style="endArrow=none;html=1;rounded=0;exitX=0;exitY=0.5;exitDx=0;exitDy=0;entryX=1;entryY=0.5;entryDx=0;entryDy=0;" parent="1" source="SPETgPv7omVsSzXn5G05-5" target="SPETgPv7omVsSzXn5G05-11" edge="1">
          <mxGeometry width="50" height="50" relative="1" as="geometry">
            <mxPoint x="240" y="240" as="sourcePoint" />
            <mxPoint x="290" y="190" as="targetPoint" />
          </mxGeometry>
        </mxCell>
        <mxCell id="SPETgPv7omVsSzXn5G05-16" value="" style="endArrow=none;html=1;rounded=0;exitX=0.5;exitY=0;exitDx=0;exitDy=0;entryX=0.5;entryY=1;entryDx=0;entryDy=0;" parent="1" source="SPETgPv7omVsSzXn5G05-11" target="SPETgPv7omVsSzXn5G05-12" edge="1">
          <mxGeometry width="50" height="50" relative="1" as="geometry">
            <mxPoint x="430" y="240" as="sourcePoint" />
            <mxPoint x="480" y="190" as="targetPoint" />
          </mxGeometry>
        </mxCell>
        <mxCell id="SPETgPv7omVsSzXn5G05-17" value="" style="endArrow=none;html=1;rounded=0;exitX=0.25;exitY=0;exitDx=0;exitDy=0;entryX=0.5;entryY=1;entryDx=0;entryDy=0;" parent="1" source="SPETgPv7omVsSzXn5G05-12" target="SPETgPv7omVsSzXn5G05-13" edge="1">
          <mxGeometry width="50" height="50" relative="1" as="geometry">
            <mxPoint x="180" y="230" as="sourcePoint" />
            <mxPoint x="230" y="180" as="targetPoint" />
            <Array as="points">
              <mxPoint x="100" y="220" />
              <mxPoint x="70" y="220" />
            </Array>
          </mxGeometry>
        </mxCell>
        <mxCell id="SPETgPv7omVsSzXn5G05-18" value="" style="endArrow=none;html=1;rounded=0;exitX=0.5;exitY=0;exitDx=0;exitDy=0;entryX=0.25;entryY=1;entryDx=0;entryDy=0;" parent="1" source="SPETgPv7omVsSzXn5G05-13" target="SPETgPv7omVsSzXn5G05-14" edge="1">
          <mxGeometry width="50" height="50" relative="1" as="geometry">
            <mxPoint x="430" y="240" as="sourcePoint" />
            <mxPoint x="480" y="190" as="targetPoint" />
            <Array as="points">
              <mxPoint x="70" y="140" />
              <mxPoint x="100" y="140" />
            </Array>
          </mxGeometry>
        </mxCell>
        <mxCell id="SPETgPv7omVsSzXn5G05-19" value="Поставка" style="rounded=0;whiteSpace=wrap;html=1;" parent="1" vertex="1">
          <mxGeometry x="720" y="240" width="80" height="40" as="geometry" />
        </mxCell>
        <mxCell id="SPETgPv7omVsSzXn5G05-20" value="Делает" style="rhombus;whiteSpace=wrap;html=1;" parent="1" vertex="1">
          <mxGeometry x="720" y="160" width="80" height="40" as="geometry" />
        </mxCell>
        <mxCell id="SPETgPv7omVsSzXn5G05-21" value="Поставщик" style="rounded=0;whiteSpace=wrap;html=1;" parent="1" vertex="1">
          <mxGeometry x="720" y="80" width="80" height="40" as="geometry" />
        </mxCell>
        <mxCell id="SPETgPv7omVsSzXn5G05-22" value="" style="endArrow=none;html=1;rounded=0;exitX=0.5;exitY=0;exitDx=0;exitDy=0;entryX=0.5;entryY=1;entryDx=0;entryDy=0;" parent="1" source="SPETgPv7omVsSzXn5G05-19" target="SPETgPv7omVsSzXn5G05-20" edge="1">
          <mxGeometry width="50" height="50" relative="1" as="geometry">
            <mxPoint x="820" y="230" as="sourcePoint" />
            <mxPoint x="870" y="180" as="targetPoint" />
          </mxGeometry>
        </mxCell>
        <mxCell id="SPETgPv7omVsSzXn5G05-23" value="" style="endArrow=none;html=1;rounded=0;exitX=0.5;exitY=0;exitDx=0;exitDy=0;entryX=0.5;entryY=1;entryDx=0;entryDy=0;" parent="1" source="SPETgPv7omVsSzXn5G05-20" target="SPETgPv7omVsSzXn5G05-21" edge="1">
          <mxGeometry width="50" height="50" relative="1" as="geometry">
            <mxPoint x="1070" y="240" as="sourcePoint" />
            <mxPoint x="1120" y="190" as="targetPoint" />
          </mxGeometry>
        </mxCell>
        <mxCell id="SPETgPv7omVsSzXn5G05-24" value="" style="endArrow=none;html=1;rounded=0;exitX=0.5;exitY=0;exitDx=0;exitDy=0;entryX=0.5;entryY=1;entryDx=0;entryDy=0;" parent="1" edge="1">
          <mxGeometry width="50" height="50" relative="1" as="geometry">
            <mxPoint x="759.71" y="320" as="sourcePoint" />
            <mxPoint x="759.71" y="280" as="targetPoint" />
          </mxGeometry>
        </mxCell>
        <mxCell id="SPETgPv7omVsSzXn5G05-25" value="" style="endArrow=none;html=1;rounded=0;exitX=0;exitY=0.5;exitDx=0;exitDy=0;entryX=1;entryY=0.5;entryDx=0;entryDy=0;" parent="1" edge="1">
          <mxGeometry width="50" height="50" relative="1" as="geometry">
            <mxPoint x="720" y="339.71" as="sourcePoint" />
            <mxPoint x="680" y="339.71" as="targetPoint" />
          </mxGeometry>
        </mxCell>
        <mxCell id="SPETgPv7omVsSzXn5G05-26" value="id товара" style="ellipse;whiteSpace=wrap;html=1;" parent="1" vertex="1">
          <mxGeometry x="276" y="145" width="75" height="40" as="geometry" />
        </mxCell>
        <mxCell id="SPETgPv7omVsSzXn5G05-27" value="Имя&lt;br&gt;модели" style="ellipse;whiteSpace=wrap;html=1;" parent="1" vertex="1">
          <mxGeometry x="359.5" y="145" width="75" height="40" as="geometry" />
        </mxCell>
        <mxCell id="SPETgPv7omVsSzXn5G05-28" value="Количество" style="ellipse;whiteSpace=wrap;html=1;" parent="1" vertex="1">
          <mxGeometry x="526" y="145" width="75" height="40" as="geometry" />
        </mxCell>
        <mxCell id="SPETgPv7omVsSzXn5G05-29" value="" style="endArrow=none;html=1;rounded=0;exitX=0.5;exitY=0;exitDx=0;exitDy=0;entryX=0.5;entryY=1;entryDx=0;entryDy=0;" parent="1" source="SPETgPv7omVsSzXn5G05-1" target="SPETgPv7omVsSzXn5G05-27" edge="1">
          <mxGeometry width="50" height="50" relative="1" as="geometry">
            <mxPoint x="540" y="290" as="sourcePoint" />
            <mxPoint x="590" y="240" as="targetPoint" />
            <Array as="points">
              <mxPoint x="440" y="210" />
              <mxPoint x="397" y="210" />
            </Array>
          </mxGeometry>
        </mxCell>
        <mxCell id="SPETgPv7omVsSzXn5G05-31" value="" style="endArrow=none;html=1;rounded=0;exitX=0.5;exitY=1;exitDx=0;exitDy=0;entryX=0.5;entryY=1;entryDx=0;entryDy=0;" parent="1" source="SPETgPv7omVsSzXn5G05-26" target="SPETgPv7omVsSzXn5G05-28" edge="1">
          <mxGeometry width="50" height="50" relative="1" as="geometry">
            <mxPoint x="495" y="290" as="sourcePoint" />
            <mxPoint x="545" y="240" as="targetPoint" />
            <Array as="points">
              <mxPoint x="313" y="210" />
              <mxPoint x="395" y="210" />
              <mxPoint x="478" y="210" />
              <mxPoint x="563" y="210" />
            </Array>
          </mxGeometry>
        </mxCell>
        <mxCell id="SPETgPv7omVsSzXn5G05-32" value="1, 1" style="text;html=1;strokeColor=none;fillColor=none;align=center;verticalAlign=middle;whiteSpace=wrap;rounded=0;" parent="1" vertex="1">
          <mxGeometry x="270" y="318" width="60" height="30" as="geometry" />
        </mxCell>
        <mxCell id="SPETgPv7omVsSzXn5G05-33" value="1, 1" style="text;html=1;strokeColor=none;fillColor=none;align=center;verticalAlign=middle;whiteSpace=wrap;rounded=0;" parent="1" vertex="1">
          <mxGeometry x="550" y="318" width="60" height="30" as="geometry" />
        </mxCell>
        <mxCell id="SPETgPv7omVsSzXn5G05-34" value="0, N" style="text;html=1;strokeColor=none;fillColor=none;align=center;verticalAlign=middle;whiteSpace=wrap;rounded=0;" parent="1" vertex="1">
          <mxGeometry x="378" y="280" width="60" height="30" as="geometry" />
        </mxCell>
        <mxCell id="SPETgPv7omVsSzXn5G05-35" value="0, N" style="text;html=1;strokeColor=none;fillColor=none;align=center;verticalAlign=middle;whiteSpace=wrap;rounded=0;" parent="1" vertex="1">
          <mxGeometry x="443" y="280" width="60" height="30" as="geometry" />
        </mxCell>
        <mxCell id="SPETgPv7omVsSzXn5G05-36" value="id заказа" style="ellipse;whiteSpace=wrap;html=1;" parent="1" vertex="1">
          <mxGeometry x="120" y="410" width="75" height="40" as="geometry" />
        </mxCell>
        <mxCell id="SPETgPv7omVsSzXn5G05-37" value="id товара" style="ellipse;whiteSpace=wrap;html=1;" parent="1" vertex="1">
          <mxGeometry x="202.5" y="410" width="75" height="40" as="geometry" />
        </mxCell>
        <mxCell id="SPETgPv7omVsSzXn5G05-38" value="количество" style="ellipse;whiteSpace=wrap;html=1;" parent="1" vertex="1">
          <mxGeometry x="285" y="410" width="75" height="40" as="geometry" />
        </mxCell>
        <mxCell id="SPETgPv7omVsSzXn5G05-39" value="" style="endArrow=none;html=1;rounded=0;exitX=0.5;exitY=0;exitDx=0;exitDy=0;entryX=0.5;entryY=0;entryDx=0;entryDy=0;" parent="1" source="SPETgPv7omVsSzXn5G05-36" target="SPETgPv7omVsSzXn5G05-38" edge="1">
          <mxGeometry width="50" height="50" relative="1" as="geometry">
            <mxPoint x="170" y="400" as="sourcePoint" />
            <mxPoint x="220" y="350" as="targetPoint" />
            <Array as="points">
              <mxPoint x="158" y="390" />
              <mxPoint x="240" y="390" />
              <mxPoint x="323" y="390" />
            </Array>
          </mxGeometry>
        </mxCell>
        <mxCell id="SPETgPv7omVsSzXn5G05-40" value="" style="endArrow=none;html=1;rounded=0;exitX=0.5;exitY=0;exitDx=0;exitDy=0;entryX=0.5;entryY=1;entryDx=0;entryDy=0;" parent="1" source="SPETgPv7omVsSzXn5G05-37" target="SPETgPv7omVsSzXn5G05-5" edge="1">
          <mxGeometry width="50" height="50" relative="1" as="geometry">
            <mxPoint x="320" y="370" as="sourcePoint" />
            <mxPoint x="370" y="320" as="targetPoint" />
          </mxGeometry>
        </mxCell>
        <mxCell id="SPETgPv7omVsSzXn5G05-41" value="id поставки" style="ellipse;whiteSpace=wrap;html=1;" parent="1" vertex="1">
          <mxGeometry x="520" y="410" width="75" height="40" as="geometry" />
        </mxCell>
        <mxCell id="SPETgPv7omVsSzXn5G05-42" value="id товара" style="ellipse;whiteSpace=wrap;html=1;" parent="1" vertex="1">
          <mxGeometry x="602.5" y="410" width="75" height="40" as="geometry" />
        </mxCell>
        <mxCell id="SPETgPv7omVsSzXn5G05-43" value="количество" style="ellipse;whiteSpace=wrap;html=1;" parent="1" vertex="1">
          <mxGeometry x="685" y="410" width="75" height="40" as="geometry" />
        </mxCell>
        <mxCell id="SPETgPv7omVsSzXn5G05-44" value="" style="endArrow=none;html=1;rounded=0;exitX=0.5;exitY=0;exitDx=0;exitDy=0;entryX=0.5;entryY=0;entryDx=0;entryDy=0;" parent="1" source="SPETgPv7omVsSzXn5G05-41" target="SPETgPv7omVsSzXn5G05-43" edge="1">
          <mxGeometry width="50" height="50" relative="1" as="geometry">
            <mxPoint x="570" y="400" as="sourcePoint" />
            <mxPoint x="620" y="350" as="targetPoint" />
            <Array as="points">
              <mxPoint x="558" y="390" />
              <mxPoint x="640" y="390" />
              <mxPoint x="723" y="390" />
            </Array>
          </mxGeometry>
        </mxCell>
        <mxCell id="SPETgPv7omVsSzXn5G05-45" value="" style="endArrow=none;html=1;rounded=0;exitX=0.5;exitY=0;exitDx=0;exitDy=0;entryX=0.5;entryY=1;entryDx=0;entryDy=0;" parent="1" edge="1">
          <mxGeometry width="50" height="50" relative="1" as="geometry">
            <mxPoint x="639.76" y="410" as="sourcePoint" />
            <mxPoint x="639.76" y="360" as="targetPoint" />
          </mxGeometry>
        </mxCell>
        <mxCell id="SPETgPv7omVsSzXn5G05-46" value="1, 1" style="text;html=1;strokeColor=none;fillColor=none;align=center;verticalAlign=middle;whiteSpace=wrap;rounded=0;" parent="1" vertex="1">
          <mxGeometry x="670" y="318" width="60" height="30" as="geometry" />
        </mxCell>
        <mxCell id="SPETgPv7omVsSzXn5G05-47" value="1, 1" style="text;html=1;strokeColor=none;fillColor=none;align=center;verticalAlign=middle;whiteSpace=wrap;rounded=0;" parent="1" vertex="1">
          <mxGeometry x="150" y="318" width="60" height="30" as="geometry" />
        </mxCell>
        <mxCell id="SPETgPv7omVsSzXn5G05-48" value="0, N" style="text;html=1;strokeColor=none;fillColor=none;align=center;verticalAlign=middle;whiteSpace=wrap;rounded=0;" parent="1" vertex="1">
          <mxGeometry x="103" y="288" width="60" height="30" as="geometry" />
        </mxCell>
        <mxCell id="SPETgPv7omVsSzXn5G05-49" value="0, N" style="text;html=1;strokeColor=none;fillColor=none;align=center;verticalAlign=middle;whiteSpace=wrap;rounded=0;" parent="1" vertex="1">
          <mxGeometry x="717" y="290" width="60" height="30" as="geometry" />
        </mxCell>
        <mxCell id="SPETgPv7omVsSzXn5G05-50" value="0, N" style="text;html=1;strokeColor=none;fillColor=none;align=center;verticalAlign=middle;whiteSpace=wrap;rounded=0;" parent="1" vertex="1">
          <mxGeometry x="717" y="200" width="60" height="30" as="geometry" />
        </mxCell>
        <mxCell id="SPETgPv7omVsSzXn5G05-51" value="0, N" style="text;html=1;strokeColor=none;fillColor=none;align=center;verticalAlign=middle;whiteSpace=wrap;rounded=0;" parent="1" vertex="1">
          <mxGeometry x="717" y="120" width="60" height="30" as="geometry" />
        </mxCell>
        <mxCell id="SPETgPv7omVsSzXn5G05-52" value="0, N" style="text;html=1;strokeColor=none;fillColor=none;align=center;verticalAlign=middle;whiteSpace=wrap;rounded=0;" parent="1" vertex="1">
          <mxGeometry x="57" y="215" width="60" height="30" as="geometry" />
        </mxCell>
        <mxCell id="SPETgPv7omVsSzXn5G05-53" value="0, N" style="text;html=1;strokeColor=none;fillColor=none;align=center;verticalAlign=middle;whiteSpace=wrap;rounded=0;" parent="1" vertex="1">
          <mxGeometry x="57" y="115" width="60" height="30" as="geometry" />
        </mxCell>
        <mxCell id="SPETgPv7omVsSzXn5G05-54" value="id поставщика" style="ellipse;whiteSpace=wrap;html=1;" parent="1" vertex="1">
          <mxGeometry x="650" width="90" height="40" as="geometry" />
        </mxCell>
        <mxCell id="SPETgPv7omVsSzXn5G05-57" value="Имя&lt;br&gt;поставщика" style="ellipse;whiteSpace=wrap;html=1;" parent="1" vertex="1">
          <mxGeometry x="780" width="90" height="40" as="geometry" />
        </mxCell>
        <mxCell id="SPETgPv7omVsSzXn5G05-58" value="" style="endArrow=none;html=1;rounded=0;entryX=0.5;entryY=1;entryDx=0;entryDy=0;exitX=0.5;exitY=1;exitDx=0;exitDy=0;" parent="1" source="SPETgPv7omVsSzXn5G05-54" target="SPETgPv7omVsSzXn5G05-57" edge="1">
          <mxGeometry width="50" height="50" relative="1" as="geometry">
            <mxPoint x="770" y="140" as="sourcePoint" />
            <mxPoint x="820" y="90" as="targetPoint" />
            <Array as="points">
              <mxPoint x="695" y="60" />
              <mxPoint x="760" y="60" />
              <mxPoint x="825" y="60" />
            </Array>
          </mxGeometry>
        </mxCell>
        <mxCell id="SPETgPv7omVsSzXn5G05-59" value="" style="endArrow=none;html=1;rounded=0;exitX=0.5;exitY=0;exitDx=0;exitDy=0;" parent="1" source="SPETgPv7omVsSzXn5G05-21" edge="1">
          <mxGeometry width="50" height="50" relative="1" as="geometry">
            <mxPoint x="770" y="140" as="sourcePoint" />
            <mxPoint x="760" y="60" as="targetPoint" />
          </mxGeometry>
        </mxCell>
        <mxCell id="SPETgPv7omVsSzXn5G05-60" value="id поставки" style="ellipse;whiteSpace=wrap;html=1;" parent="1" vertex="1">
          <mxGeometry x="840" y="210" width="75" height="40" as="geometry" />
        </mxCell>
        <mxCell id="SPETgPv7omVsSzXn5G05-61" value="дата&lt;br&gt;поставки" style="ellipse;whiteSpace=wrap;html=1;" parent="1" vertex="1">
          <mxGeometry x="840" y="270" width="75" height="40" as="geometry" />
        </mxCell>
        <mxCell id="SPETgPv7omVsSzXn5G05-62" value="" style="endArrow=none;html=1;rounded=0;exitX=1;exitY=0.5;exitDx=0;exitDy=0;entryX=0;entryY=0.5;entryDx=0;entryDy=0;" parent="1" source="SPETgPv7omVsSzXn5G05-19" target="SPETgPv7omVsSzXn5G05-60" edge="1">
          <mxGeometry width="50" height="50" relative="1" as="geometry">
            <mxPoint x="870" y="250" as="sourcePoint" />
            <mxPoint x="920" y="200" as="targetPoint" />
            <Array as="points">
              <mxPoint x="830" y="260" />
              <mxPoint x="830" y="230" />
            </Array>
          </mxGeometry>
        </mxCell>
        <mxCell id="SPETgPv7omVsSzXn5G05-63" value="" style="endArrow=none;html=1;rounded=0;entryX=0;entryY=0.5;entryDx=0;entryDy=0;" parent="1" target="SPETgPv7omVsSzXn5G05-61" edge="1">
          <mxGeometry width="50" height="50" relative="1" as="geometry">
            <mxPoint x="830" y="260" as="sourcePoint" />
            <mxPoint x="920" y="200" as="targetPoint" />
            <Array as="points">
              <mxPoint x="830" y="290" />
            </Array>
          </mxGeometry>
        </mxCell>
        <mxCell id="SPETgPv7omVsSzXn5G05-64" value="id покупателя" style="ellipse;whiteSpace=wrap;html=1;" parent="1" vertex="1">
          <mxGeometry x="10" width="90" height="40" as="geometry" />
        </mxCell>
        <mxCell id="SPETgPv7omVsSzXn5G05-65" value="Имя&lt;br&gt;покупателя" style="ellipse;whiteSpace=wrap;html=1;" parent="1" vertex="1">
          <mxGeometry x="128" width="90" height="40" as="geometry" />
        </mxCell>
        <mxCell id="SPETgPv7omVsSzXn5G05-66" value="" style="endArrow=none;html=1;rounded=0;entryX=0.5;entryY=1;entryDx=0;entryDy=0;exitX=0.5;exitY=1;exitDx=0;exitDy=0;" parent="1" source="SPETgPv7omVsSzXn5G05-64" target="SPETgPv7omVsSzXn5G05-65" edge="1">
          <mxGeometry width="50" height="50" relative="1" as="geometry">
            <mxPoint x="130" y="140" as="sourcePoint" />
            <mxPoint x="180" y="90" as="targetPoint" />
            <Array as="points">
              <mxPoint x="55" y="60" />
              <mxPoint x="120" y="60" />
              <mxPoint x="173" y="60" />
            </Array>
          </mxGeometry>
        </mxCell>
        <mxCell id="SPETgPv7omVsSzXn5G05-67" value="" style="endArrow=none;html=1;rounded=0;exitX=0.5;exitY=0;exitDx=0;exitDy=0;" parent="1" edge="1">
          <mxGeometry width="50" height="50" relative="1" as="geometry">
            <mxPoint x="120" y="80" as="sourcePoint" />
            <mxPoint x="120" y="60" as="targetPoint" />
          </mxGeometry>
        </mxCell>
        <mxCell id="SPETgPv7omVsSzXn5G05-68" value="id заказа" style="ellipse;whiteSpace=wrap;html=1;" parent="1" vertex="1">
          <mxGeometry x="-30" y="210" width="75" height="40" as="geometry" />
        </mxCell>
        <mxCell id="SPETgPv7omVsSzXn5G05-69" value="дата&lt;br&gt;заказа" style="ellipse;whiteSpace=wrap;html=1;" parent="1" vertex="1">
          <mxGeometry x="-30" y="270" width="75" height="40" as="geometry" />
        </mxCell>
        <mxCell id="SPETgPv7omVsSzXn5G05-70" value="" style="endArrow=none;html=1;rounded=0;exitX=1;exitY=0.5;exitDx=0;exitDy=0;entryX=1;entryY=0.5;entryDx=0;entryDy=0;" parent="1" source="SPETgPv7omVsSzXn5G05-69" target="SPETgPv7omVsSzXn5G05-68" edge="1">
          <mxGeometry width="50" height="50" relative="1" as="geometry">
            <mxPoint x="260" y="270" as="sourcePoint" />
            <mxPoint x="310" y="220" as="targetPoint" />
            <Array as="points">
              <mxPoint x="50" y="290" />
              <mxPoint x="50" y="260" />
              <mxPoint x="50" y="230" />
            </Array>
          </mxGeometry>
        </mxCell>
        <mxCell id="SPETgPv7omVsSzXn5G05-71" value="" style="endArrow=none;html=1;rounded=0;entryX=0;entryY=0.5;entryDx=0;entryDy=0;" parent="1" target="SPETgPv7omVsSzXn5G05-12" edge="1">
          <mxGeometry width="50" height="50" relative="1" as="geometry">
            <mxPoint x="50" y="260" as="sourcePoint" />
            <mxPoint x="190" y="200" as="targetPoint" />
          </mxGeometry>
        </mxCell>
        <mxCell id="U9o846-IzRNpAc5K1iNu-1" value="Нотация Чена" style="text;html=1;strokeColor=none;fillColor=none;align=center;verticalAlign=middle;whiteSpace=wrap;rounded=0;" vertex="1" parent="1">
          <mxGeometry x="385" y="460" width="110" height="30" as="geometry" />
        </mxCell>
        <mxCell id="U9o846-IzRNpAc5K1iNu-2" value="Цена" style="ellipse;whiteSpace=wrap;html=1;" vertex="1" parent="1">
          <mxGeometry x="441" y="145" width="75" height="40" as="geometry" />
        </mxCell>
        <mxCell id="U9o846-IzRNpAc5K1iNu-3" value="" style="endArrow=none;html=1;rounded=0;entryX=0.5;entryY=1;entryDx=0;entryDy=0;" edge="1" parent="1" target="U9o846-IzRNpAc5K1iNu-2">
          <mxGeometry width="50" height="50" relative="1" as="geometry">
            <mxPoint x="478" y="210" as="sourcePoint" />
            <mxPoint x="505" y="210" as="targetPoint" />
          </mxGeometry>
        </mxCell>
        <mxCell id="U9o846-IzRNpAc5K1iNu-4" value="Выполняет" style="rhombus;whiteSpace=wrap;html=1;" vertex="1" parent="1">
          <mxGeometry x="180" y="160" width="80" height="40" as="geometry" />
        </mxCell>
        <mxCell id="U9o846-IzRNpAc5K1iNu-5" value="" style="endArrow=none;html=1;rounded=0;exitX=1;exitY=0.5;exitDx=0;exitDy=0;entryX=0.5;entryY=1;entryDx=0;entryDy=0;" edge="1" parent="1" source="SPETgPv7omVsSzXn5G05-12" target="U9o846-IzRNpAc5K1iNu-4">
          <mxGeometry width="50" height="50" relative="1" as="geometry">
            <mxPoint x="330" y="260" as="sourcePoint" />
            <mxPoint x="380" y="210" as="targetPoint" />
            <Array as="points">
              <mxPoint x="220" y="260" />
            </Array>
          </mxGeometry>
        </mxCell>
        <mxCell id="U9o846-IzRNpAc5K1iNu-7" value="Сотрудник" style="rounded=0;whiteSpace=wrap;html=1;" vertex="1" parent="1">
          <mxGeometry x="200" y="80" width="80" height="40" as="geometry" />
        </mxCell>
        <mxCell id="U9o846-IzRNpAc5K1iNu-8" value="" style="endArrow=none;html=1;rounded=0;exitX=0.5;exitY=0;exitDx=0;exitDy=0;entryX=0.25;entryY=1;entryDx=0;entryDy=0;" edge="1" parent="1" source="U9o846-IzRNpAc5K1iNu-4" target="U9o846-IzRNpAc5K1iNu-7">
          <mxGeometry width="50" height="50" relative="1" as="geometry">
            <mxPoint x="330" y="170" as="sourcePoint" />
            <mxPoint x="380" y="120" as="targetPoint" />
          </mxGeometry>
        </mxCell>
        <mxCell id="U9o846-IzRNpAc5K1iNu-9" value="0, N" style="text;html=1;strokeColor=none;fillColor=none;align=center;verticalAlign=middle;whiteSpace=wrap;rounded=0;" vertex="1" parent="1">
          <mxGeometry x="177" y="215" width="60" height="30" as="geometry" />
        </mxCell>
        <mxCell id="U9o846-IzRNpAc5K1iNu-10" value="0, N" style="text;html=1;strokeColor=none;fillColor=none;align=center;verticalAlign=middle;whiteSpace=wrap;rounded=0;" vertex="1" parent="1">
          <mxGeometry x="177" y="120" width="60" height="30" as="geometry" />
        </mxCell>
        <mxCell id="U9o846-IzRNpAc5K1iNu-11" value="id сотрудника" style="ellipse;whiteSpace=wrap;html=1;" vertex="1" parent="1">
          <mxGeometry x="288" y="36" width="90" height="40" as="geometry" />
        </mxCell>
        <mxCell id="U9o846-IzRNpAc5K1iNu-12" value="" style="endArrow=none;html=1;rounded=0;exitX=1;exitY=0.5;exitDx=0;exitDy=0;entryX=0.5;entryY=1;entryDx=0;entryDy=0;" edge="1" parent="1" source="U9o846-IzRNpAc5K1iNu-7" target="U9o846-IzRNpAc5K1iNu-11">
          <mxGeometry width="50" height="50" relative="1" as="geometry">
            <mxPoint x="300" y="140" as="sourcePoint" />
            <mxPoint x="350" y="90" as="targetPoint" />
            <Array as="points">
              <mxPoint x="333" y="100" />
            </Array>
          </mxGeometry>
        </mxCell>
        <mxCell id="U9o846-IzRNpAc5K1iNu-13" value="email" style="ellipse;whiteSpace=wrap;html=1;" vertex="1" parent="1">
          <mxGeometry x="-100" width="90" height="40" as="geometry" />
        </mxCell>
        <mxCell id="U9o846-IzRNpAc5K1iNu-14" value="пароль" style="ellipse;whiteSpace=wrap;html=1;" vertex="1" parent="1">
          <mxGeometry x="-210" width="90" height="40" as="geometry" />
        </mxCell>
        <mxCell id="U9o846-IzRNpAc5K1iNu-15" value="" style="endArrow=none;html=1;rounded=0;exitX=0.5;exitY=1;exitDx=0;exitDy=0;" edge="1" parent="1" source="U9o846-IzRNpAc5K1iNu-14">
          <mxGeometry width="50" height="50" relative="1" as="geometry">
            <mxPoint x="110" y="140" as="sourcePoint" />
            <mxPoint x="100" y="60" as="targetPoint" />
            <Array as="points">
              <mxPoint x="-165" y="60" />
            </Array>
          </mxGeometry>
        </mxCell>
        <mxCell id="U9o846-IzRNpAc5K1iNu-16" value="" style="endArrow=none;html=1;rounded=0;entryX=0.5;entryY=1;entryDx=0;entryDy=0;" edge="1" parent="1" target="U9o846-IzRNpAc5K1iNu-13">
          <mxGeometry width="50" height="50" relative="1" as="geometry">
            <mxPoint x="-55" y="60" as="sourcePoint" />
            <mxPoint x="160" y="90" as="targetPoint" />
          </mxGeometry>
        </mxCell>
        <mxCell id="U9o846-IzRNpAc5K1iNu-17" value="email" style="ellipse;whiteSpace=wrap;html=1;" vertex="1" parent="1">
          <mxGeometry x="390" y="36" width="90" height="40" as="geometry" />
        </mxCell>
        <mxCell id="U9o846-IzRNpAc5K1iNu-18" value="пароль" style="ellipse;whiteSpace=wrap;html=1;" vertex="1" parent="1">
          <mxGeometry x="495" y="36" width="90" height="40" as="geometry" />
        </mxCell>
        <mxCell id="U9o846-IzRNpAc5K1iNu-19" value="" style="endArrow=none;html=1;rounded=0;entryX=0.5;entryY=1;entryDx=0;entryDy=0;" edge="1" parent="1" target="U9o846-IzRNpAc5K1iNu-18">
          <mxGeometry width="50" height="50" relative="1" as="geometry">
            <mxPoint x="330" y="100" as="sourcePoint" />
            <mxPoint x="370" y="90" as="targetPoint" />
            <Array as="points">
              <mxPoint x="540" y="100" />
            </Array>
          </mxGeometry>
        </mxCell>
        <mxCell id="U9o846-IzRNpAc5K1iNu-20" value="" style="endArrow=none;html=1;rounded=0;entryX=0.5;entryY=1;entryDx=0;entryDy=0;" edge="1" parent="1" target="U9o846-IzRNpAc5K1iNu-17">
          <mxGeometry width="50" height="50" relative="1" as="geometry">
            <mxPoint x="435" y="100" as="sourcePoint" />
            <mxPoint x="370" y="90" as="targetPoint" />
          </mxGeometry>
        </mxCell>
        <mxCell id="U9o846-IzRNpAc5K1iNu-21" value="Отменяет" style="rhombus;whiteSpace=wrap;html=1;" vertex="1" parent="1">
          <mxGeometry x="110" y="160" width="60" height="40" as="geometry" />
        </mxCell>
        <mxCell id="U9o846-IzRNpAc5K1iNu-22" value="" style="endArrow=none;html=1;rounded=0;exitX=0.5;exitY=1;exitDx=0;exitDy=0;entryX=0.75;entryY=0;entryDx=0;entryDy=0;" edge="1" parent="1" source="U9o846-IzRNpAc5K1iNu-21" target="SPETgPv7omVsSzXn5G05-12">
          <mxGeometry width="50" height="50" relative="1" as="geometry">
            <mxPoint x="160" y="220" as="sourcePoint" />
            <mxPoint x="210" y="170" as="targetPoint" />
          </mxGeometry>
        </mxCell>
        <mxCell id="U9o846-IzRNpAc5K1iNu-23" value="" style="endArrow=none;html=1;rounded=0;exitX=0.5;exitY=0;exitDx=0;exitDy=0;entryX=0.285;entryY=0.003;entryDx=0;entryDy=0;entryPerimeter=0;" edge="1" parent="1" source="U9o846-IzRNpAc5K1iNu-21" target="U9o846-IzRNpAc5K1iNu-24">
          <mxGeometry width="50" height="50" relative="1" as="geometry">
            <mxPoint x="160" y="220" as="sourcePoint" />
            <mxPoint x="210" y="170" as="targetPoint" />
          </mxGeometry>
        </mxCell>
        <mxCell id="U9o846-IzRNpAc5K1iNu-24" value="0, N" style="text;html=1;strokeColor=none;fillColor=none;align=center;verticalAlign=middle;whiteSpace=wrap;rounded=0;" vertex="1" parent="1">
          <mxGeometry x="123" y="120" width="60" height="30" as="geometry" />
        </mxCell>
        <mxCell id="U9o846-IzRNpAc5K1iNu-25" value="0, N" style="text;html=1;strokeColor=none;fillColor=none;align=center;verticalAlign=middle;whiteSpace=wrap;rounded=0;" vertex="1" parent="1">
          <mxGeometry x="123" y="210" width="60" height="30" as="geometry" />
        </mxCell>
      </root>
    </mxGraphModel>
  </diagram>
</mxfile>
